<svg width="342" height="342" viewBox="0 0 342 342" fill="none" xmlns="http://www.w3.org/2000/svg">
<path d="M109 43C249.281 72.7769 361.052 118.249 251.5 102C161.553 88.659 121.585 136.379 113.183 151.073C112.898 153.159 112.509 154.525 111.998 155C111.021 155.909 111.352 154.276 113.183 151.073C115.951 130.855 109 43 109 43Z" fill="url(#paint0_linear_7_17)"/>
<path d="M109 43C249.281 72.7769 361.052 118.249 251.5 102C141.948 85.7512 106.536 160.082 111.998 155C117.46 149.918 109 43 109 43Z" stroke="#FF1F00" stroke-width="10"/>
<line x1="108.036" y1="39.9635" x2="109.993" y2="308.964" stroke="url(#paint1_linear_7_17)" stroke-width="10" stroke-linecap="round"/>
<defs>
<linearGradient id="paint0_linear_7_17" x1="151" y1="99" x2="217" y2="102" gradientUnits="userSpaceOnUse">
<stop stop-color="#FF1F00"/>
<stop offset="1" stop-color="#FF1F00" stop-opacity="0.9"/>
</linearGradient>
<linearGradient id="paint1_linear_7_17" x1="107.999" y1="38" x2="110.503" y2="314" gradientUnits="userSpaceOnUse">
<stop stop-color="#507079"/>
<stop offset="1" stop-color="#0B4F00"/>
</linearGradient>
</defs>
</svg>
