<svg width="342" height="342" viewBox="0 0 342 342" fill="none" xmlns="http://www.w3.org/2000/svg">
<g filter="url(#filter0_d_104_16)">
<path d="M98.5 265.5C94.7963 215.5 102 145.5 94 94C86 42.5 102 41 102 41C102 41 109.662 22.7442 119 15C134.716 1.96675 150.083 5.89622 170.5 5.99999C190.34 6.10084 205.449 2.07303 220.5 15C229.544 22.768 236.5 41 236.5 41C236.5 41 253.5 40 245 94C236.5 148 247 212 242 265.5C237 319 233.5 318.5 233.5 318.5L220.5 328.5H119L105 318.5C105 318.5 102.204 315.5 98.5 265.5Z" fill="#EAB308"/>
<path d="M98.5 265.5C94.7963 215.5 102 145.5 94 94C86 42.5 102 41 102 41C102 41 109.662 22.7442 119 15C134.716 1.96675 150.083 5.89622 170.5 5.99999C190.34 6.10084 205.449 2.07303 220.5 15C229.544 22.768 236.5 41 236.5 41C236.5 41 253.5 40 245 94C236.5 148 247 212 242 265.5C237 319 233.5 318.5 233.5 318.5L220.5 328.5H119L105 318.5C105 318.5 102.204 315.5 98.5 265.5Z" stroke="black" stroke-width="4"/>
</g>
<path d="M144 76.6667C129.2 78.8 116.8 83.0667 112.267 87.6C108.533 91.3334 108.4 89.3334 115.067 120C118.4 134.8 120.133 140.667 121.467 140.533C122.533 140.4 128.533 138.8 134.933 136.8C161.6 129.067 190.933 130.133 213.733 139.867L219.6 142.4L223.2 124.8C225.2 115.2 227.467 104.133 228.267 100.4C229.733 94 229.6 92.9334 227.2 89.7334C223.733 84.8 214.667 80.4 203.333 78C189.733 75.2 159.067 74.4 144 76.6667Z" fill="url(#paint0_radial_104_16)"/>
<path d="M106.667 114C106.267 123.733 106.133 124 104 125.333C102.267 126.4 102.267 126.667 104.133 126.667C106 126.667 106.4 133.2 107.2 189.6C108.267 254 109.2 276.267 110.933 271.333C116.267 256.4 119.333 217.333 118.133 177.333C117.333 148.4 116.8 144.533 110.133 119.333L106.933 107.333L106.667 114Z" fill="url(#paint1_radial_104_16)"/>
<path d="M230.267 117.333C229.067 122.8 226.667 131.867 225.067 137.333C222.4 146.667 222.267 150.267 222.133 192.667C222.133 238.667 223.067 251.067 228.4 268.667L230 274L230.933 262.667C231.333 256.4 232.267 223.333 232.8 188.933C233.733 127.333 233.733 126.667 236.4 126.667C239.067 126.667 239.067 126.533 236.667 124.933C235.333 123.867 234.667 122.4 235.2 121.6C235.733 120.667 235.6 120 234.8 120C234.133 120 233.333 117.2 233.067 113.6L232.667 107.333L230.267 117.333Z" fill="url(#paint2_radial_104_16)"/>
<path d="M218.133 267.6C216.533 272.667 207.467 279.467 197.867 282.8C189.867 285.6 186.133 286 170 286C153.867 286 150.133 285.6 142.267 282.8C132.667 279.6 124.8 273.733 123.2 269.067C121.733 264.4 120.4 268.133 118 283.867L115.6 299.067L118.8 301.733C128.533 309.733 148.4 314.667 170.933 314.667C188 314.667 200.8 312.267 211.733 307.333C221.867 302.667 225.467 299.2 224.533 295.067C224 293.2 222.667 285.733 221.333 278.267C219.733 268.8 218.8 265.6 218.133 267.6Z" fill="url(#paint3_radial_104_16)"/>
<path d="M108 307.6C108 312.667 110.933 316 118.533 320C126.667 324.133 127.733 323.2 120.533 318.267C116.933 316 112.667 311.6 111.067 308.667L108 303.333V307.6Z" fill="#BC3A34"/>
<path d="M230.667 306.667C230.667 308.933 222.267 317.467 217.467 320C214.8 321.467 213.467 322.533 214.4 322.667C218.267 322.8 229.333 315.867 231.333 312C233.6 307.467 233.867 305.333 232 305.333C231.333 305.333 230.667 305.867 230.667 306.667Z" fill="#BC3A34"/>
<path d="M252.124 117.202C245.908 114.822 233.79 115.953 231.106 120.802L230 124.401L234.425 126.972C238.779 126.3 234.119 123.694 254.337 128C255.569 126.332 256.049 125.347 255.996 123.372C255.894 120.849 255.309 119.477 252.124 117.202Z" fill="black" stroke="black"/>
<path d="M87.8756 117.202C94.0919 114.822 106.21 115.953 108.894 120.802L110 124.401L105.575 126.972C101.221 126.3 105.881 123.694 85.6632 128C84.4314 126.332 83.9513 125.347 84.0039 123.372C84.1064 120.849 84.6906 119.477 87.8756 117.202Z" fill="black" stroke="black"/>
<path d="M140 8C134 8 121.875 10.7305 112.635 24.4438C102.885 39.1697 108 38 112.635 29.737C117.362 23.3683 120 19.5 128.671 13.5L137 10L140 8Z" fill="#FF0000"/>
<path d="M200 8C205.832 8 217.618 10.752 226.6 24.5732C236.077 39.415 231.106 38.2361 226.6 29.908C222.005 23.4892 219.441 19.5905 211.012 13.5433L202.916 10.0157L200 8Z" fill="#FF0000"/>
<defs>
<filter id="filter0_d_104_16" x="89.7599" y="3.36508" width="167.62" height="335.135" filterUnits="userSpaceOnUse" color-interpolation-filters="sRGB">
<feFlood flood-opacity="0" result="BackgroundImageFix"/>
<feColorMatrix in="SourceAlpha" type="matrix" values="0 0 0 0 0 0 0 0 0 0 0 0 0 0 0 0 0 0 127 0" result="hardAlpha"/>
<feOffset dx="4" dy="4"/>
<feGaussianBlur stdDeviation="2"/>
<feComposite in2="hardAlpha" operator="out"/>
<feColorMatrix type="matrix" values="0 0 0 0 0 0 0 0 0 0 0 0 0 0 0 0 0 0 0.5 0"/>
<feBlend mode="normal" in2="BackgroundImageFix" result="effect1_dropShadow_104_16"/>
<feBlend mode="normal" in="SourceGraphic" in2="effect1_dropShadow_104_16" result="shape"/>
</filter>
<radialGradient id="paint0_radial_104_16" cx="0" cy="0" r="1" gradientUnits="userSpaceOnUse" gradientTransform="translate(229 88.5) rotate(153.435) scale(119.63 213.241)">
<stop offset="0.00181034" stop-color="#20434E"/>
<stop offset="1" stop-color="#507079"/>
</radialGradient>
<radialGradient id="paint1_radial_104_16" cx="0" cy="0" r="1" gradientUnits="userSpaceOnUse" gradientTransform="translate(111 272) rotate(-90) scale(165 15.7084)">
<stop stop-color="#20434E"/>
<stop offset="1" stop-color="#507079"/>
</radialGradient>
<radialGradient id="paint2_radial_104_16" cx="0" cy="0" r="1" gradientUnits="userSpaceOnUse" gradientTransform="translate(230 274) rotate(-90) scale(147.5 14.4267)">
<stop stop-color="#20434E"/>
<stop offset="1" stop-color="#507079"/>
</radialGradient>
<radialGradient id="paint3_radial_104_16" cx="0" cy="0" r="1" gradientUnits="userSpaceOnUse" gradientTransform="translate(219 271) rotate(166.884) scale(105.759 242.163)">
<stop stop-color="#20434E"/>
<stop offset="1" stop-color="#507079"/>
</radialGradient>
</defs>
</svg>
